<svg xmlns="http://www.w3.org/2000/svg" viewBox="0 0 64 64" fill="none" aria-hidden="true">
  <defs>
    <linearGradient id="skullG" x1="0%" y1="0%" x2="100%" y2="100%">
      <stop offset="0%" stop-color="#f5f3ff"/>
      <stop offset="45%" stop-color="#e9d5ff"/>
      <stop offset="100%" stop-color="#a78bfa"/>
    </linearGradient>
  </defs>
  <!-- Qaroqchilar: kesishgan suyaklar (Jolly Roger) -->
  <g stroke="url(#skullG)" stroke-linecap="round" stroke-linejoin="round">
    <path stroke-width="5.5" d="M17 17 47 47"/>
    <path stroke-width="5.5" d="M47 17 17 47"/>
    <!-- Suyak uchlari (g'ildirak) -->
    <circle cx="17" cy="17" r="3.2" fill="url(#skullG)" stroke="none"/>
    <circle cx="47" cy="47" r="3.2" fill="url(#skullG)" stroke="none"/>
    <circle cx="47" cy="17" r="3.2" fill="url(#skullG)" stroke="none"/>
    <circle cx="17" cy="47" r="3.2" fill="url(#skullG)" stroke="none"/>
  </g>
  <!-- Bosh suyagi -->
  <path fill="url(#skullG)" d="M32 6C19.85 6 10 16.22 10 29.2c0 5.1 1.65 9.8 4.45 13.55.35 8.15 5.3 14.75 12.05 17.35.55 2.45 2.9 3.9 5.5 3.9s4.95-1.45 5.5-3.9c6.75-2.6 11.7-9.2 12.05-17.35C52.35 39 54 34.3 54 29.2 54 16.22 44.15 6 32 6Z"/>
  <ellipse cx="24" cy="28" rx="6.5" ry="7" fill="#0a0710" opacity="0.92"/>
  <ellipse cx="40" cy="28" rx="6.5" ry="7" fill="#0a0710" opacity="0.92"/>
  <path fill="#0a0710" opacity="0.85" d="M32 33.5c-1.2 0-2.2.95-2.5 2.2L28 40c-.15.5.15 1 .65 1.05h6.7c.5-.05.8-.55.65-1.05l-1.5-4.3c-.3-1.25-1.3-2.2-2.5-2.2Z"/>
  <path fill="#0a0710" opacity="0.55" d="M22 44.5h3v3h-3v-3Zm5.5 0h3v3.2h-3V44.5Zm5.5 0h3v3h-3v-3Zm5.5 0h3v2.8h-3V44.5Z"/>
</svg>
