<svg xmlns="http://www.w3.org/2000/svg" viewBox="0 0 64 64" fill="none" aria-hidden="true">
  <!-- Stylize qilingan somon qaroqlar belgisi (vektor, mustaqil chizma) -->
  <defs>
    <linearGradient id="straw" x1="0%" y1="0%" x2="0%" y2="100%">
      <stop offset="0%" stop-color="#f4e4bc"/>
      <stop offset="100%" stop-color="#c9932a"/>
    </linearGradient>
    <linearGradient id="skullFill" x1="0%" y1="0%" x2="100%" y2="100%">
      <stop offset="0%" stop-color="#fffef8"/>
      <stop offset="100%" stop-color="#e5ddd0"/>
    </linearGradient>
  </defs>
  <!-- Bosh / yuz -->
  <path fill="url(#skullFill)" stroke="#9a8b7a" stroke-width="0.55" stroke-opacity="0.45"
    d="M32 31c-10.5 0-14.5 7.5-14.5 15.2C17.5 54 24.5 60 32 60s14.5-6 14.5-13.8C46.5 38.5 42.5 31 32 31Z"/>
  <!-- Ko'zlar -->
  <ellipse cx="25" cy="44" rx="4.5" ry="5" fill="#15101f"/>
  <ellipse cx="39" cy="44" rx="4.5" ry="5" fill="#15101f"/>
  <circle cx="26" cy="43" r="1.2" fill="#2a2038" opacity="0.4"/>
  <circle cx="40" cy="43" r="1.2" fill="#2a2038" opacity="0.4"/>
  <!-- Burun -->
  <path fill="#15101f" opacity="0.88" d="M32 47.5l-2.2 4.8h4.4l-2.2-4.8Z"/>
  <!-- Og'iz -->
  <path fill="none" stroke="#15101f" stroke-width="1.15" stroke-linecap="round"
    d="M23.5 53.5q8.5 6.5 17 0"/>
  <path stroke="#15101f" stroke-width="0.85" opacity="0.45" d="M27 54v2.8m5-2.8v2.8m5-2.8v2.8"/>
  <!-- Shlyapa shoyi (mafhum peshona ustidan) -->
  <ellipse cx="32" cy="33" rx="27" ry="8.2" fill="url(#straw)" stroke="#9a6b2e" stroke-width="0.45" stroke-opacity="0.55"/>
  <ellipse cx="32" cy="31.5" rx="22" ry="5.5" fill="#f5ecd0" opacity="0.4"/>
  <!-- Gumbaz -->
  <path fill="url(#straw)" stroke="#9a6b2e" stroke-width="0.45" stroke-opacity="0.55"
    d="M15 31c2.5-12 11-17.5 17-17.5S47.5 19 49 31c-5.5-3.5-11.5-5.2-17-5.2S20.5 27.5 15 31Z"/>
  <!-- Qizil lenta -->
  <path fill="#c1121f" d="M13 28.5c7.5-1.8 13.5-2.5 19-2.5s11.5 0.7 19 2.5v4.2c-7.5-1.6-12.5-2-19-2s-11.5 0.4-19 2v-4.2Z"/>
  <path fill="#7f1d1d" opacity="0.35" d="M13 31.2h38v1H13z"/>
</svg>
